<?xml version="1.0" standalone="no"?>
<!DOCTYPE svg PUBLIC "-//W3C//DTD SVG 20010904//EN"
 "http://www.w3.org/TR/2001/REC-SVG-20010904/DTD/svg10.dtd">
<svg version="1.0" xmlns="http://www.w3.org/2000/svg"
 width="500.000000pt" height="500.000000pt" viewBox="0 0 500.000000 500.000000"
 preserveAspectRatio="xMidYMid meet">

<g transform="translate(0.000000,500.000000) scale(0.100000,-0.100000)"
fill="#000000" stroke="none">
<path d="M760 2500 l0 -480 1740 0 1740 0 0 480 0 480 -1740 0 -1740 0 0 -480z
m3450 0 l0 -450 -1715 0 -1715 0 0 450 0 450 1715 0 1715 0 0 -450z"/>
<path d="M850 2500 l0 -390 825 0 825 0 0 390 0 390 -825 0 -825 0 0 -390z
m1177 123 c24 -16 43 -43 43 -62 0 -19 -18 -12 -48 19 -57 57 -153 31 -168
-46 -19 -103 94 -167 168 -94 16 17 36 30 44 30 12 0 12 -4 -1 -30 -41 -80
-188 -81 -230 0 -23 44 -19 111 8 151 38 57 123 72 184 32z m-847 2 c0 -11
-12 -15 -45 -15 l-45 0 0 -115 c0 -96 -3 -115 -15 -115 -12 0 -15 19 -15 115
l0 115 -45 0 c-33 0 -45 4 -45 15 0 12 18 15 105 15 87 0 105 -3 105 -15z
m244 -6 c20 -16 26 -29 26 -60 0 -38 -26 -79 -50 -79 -6 0 3 -20 20 -44 35
-52 36 -56 13 -56 -10 0 -30 20 -46 45 -23 37 -34 45 -58 45 -28 0 -29 -2 -29
-45 0 -38 -3 -45 -20 -45 -19 0 -20 7 -20 130 l0 130 69 0 c54 0 74 -4 95 -21z
m266 -67 c19 -48 43 -106 52 -129 17 -42 17 -43 -1 -43 -12 0 -23 11 -30 30
-10 29 -12 30 -75 30 -62 0 -64 -1 -75 -30 -5 -16 -17 -30 -25 -30 -22 0 -21
5 27 121 24 57 46 112 50 122 3 9 14 17 24 17 13 0 27 -23 53 -88z m510 33 l0
-55 34 0 c39 0 70 31 81 80 5 21 13 30 26 30 25 0 24 -4 -11 -75 l-29 -60 35
-62 c31 -56 33 -63 16 -63 -12 0 -30 20 -52 60 -31 54 -37 60 -67 60 l-33 0 0
-60 c0 -47 -3 -60 -15 -60 -13 0 -15 21 -15 130 0 109 2 130 15 130 12 0 15
-13 15 -55z"/>
<path d="M1300 2559 l0 -50 52 3 c47 3 54 6 62 30 14 41 -14 68 -71 68 l-43 0
0 -51z"/>
<path d="M1612 2535 c-12 -31 -22 -59 -22 -61 0 -2 22 -4 49 -4 l50 0 -21 53
c-12 28 -24 56 -28 60 -4 4 -17 -17 -28 -48z"/>
<path d="M3954 2636 c-34 -15 -44 -33 -44 -75 0 -35 26 -59 82 -75 25 -8 44
-20 46 -30 5 -23 -26 -31 -47 -12 -10 9 -32 16 -50 16 -27 0 -32 -3 -29 -21 5
-35 51 -62 103 -61 55 0 92 22 101 59 11 42 -14 74 -76 98 -32 12 -55 27 -55
35 0 21 44 25 51 6 9 -24 74 -22 74 2 0 51 -95 86 -156 58z"/>
<path d="M2640 2510 l0 -130 90 0 90 0 0 30 c0 29 -1 30 -50 30 -43 0 -50 3
-50 20 0 17 7 20 45 20 43 0 45 1 45 30 0 29 -2 30 -45 30 -38 0 -45 3 -45 20
0 17 7 20 50 20 49 0 50 1 50 30 l0 30 -90 0 -90 0 0 -130z"/>
<path d="M2890 2513 l48 -128 38 -3 39 -3 44 118 c24 65 46 124 48 131 4 8 -7
12 -35 12 l-40 0 -22 -65 c-12 -36 -25 -67 -30 -70 -5 -3 -19 26 -31 65 l-23
70 -42 0 -42 0 48 -127z"/>
<path d="M3150 2510 l0 -130 90 0 90 0 0 30 c0 30 -1 30 -55 30 -48 0 -55 2
-55 20 0 17 7 20 45 20 43 0 45 1 45 30 0 29 -2 30 -45 30 -38 0 -45 3 -45 20
0 17 7 20 50 20 49 0 50 1 50 30 l0 30 -85 0 -85 0 0 -130z"/>
<path d="M3370 2510 l0 -130 40 0 39 0 3 62 3 63 45 -62 c39 -54 49 -62 78
-63 l32 0 0 130 0 130 -40 0 -39 0 -3 -61 -3 -61 -44 61 c-39 54 -48 61 -78
61 l-33 0 0 -130z"/>
<path d="M3650 2605 c0 -34 1 -35 40 -35 l40 0 0 -95 0 -95 35 0 35 0 0 95 0
95 40 0 c39 0 40 1 40 35 l0 35 -115 0 -115 0 0 -35z"/>
</g>
</svg>
